<?xml version="1.0" standalone="no"?>
<!DOCTYPE svg PUBLIC "-//W3C//DTD SVG 20010904//EN"
 "http://www.w3.org/TR/2001/REC-SVG-20010904/DTD/svg10.dtd">
<svg version="1.0" xmlns="http://www.w3.org/2000/svg"
 width="472.000000pt" height="472.000000pt" viewBox="0 0 472.000000 472.000000"
 preserveAspectRatio="xMidYMid meet">
<metadata>
Created by potrace 1.11, written by Peter Selinger 2001-2013
</metadata>
<g transform="translate(0.000000,472.000000) scale(0.100000,-0.100000)"
fill="#000000" stroke="none">
<path d="M1834 3325 c-250 -45 -458 -156 -645 -344 -224 -225 -334 -476 -346
-787 -6 -159 5 -260 43 -393 54 -185 144 -338 288 -488 235 -246 532 -373 872
-373 514 0 976 335 1134 823 18 55 38 133 46 175 18 103 17 289 -1 398 -20
110 -76 283 -116 353 l-30 52 -19 -23 -19 -23 5 48 c5 44 2 52 -42 114 l-48
67 -18 -39 c-9 -22 -18 -62 -18 -90 -1 -44 -2 -47 -11 -25 -13 32 -4 115 15
145 15 22 13 26 -42 81 -121 122 -295 229 -462 284 -166 56 -421 75 -586 45z"/>
</g>
</svg>
